<svg width="9" height="9" viewBox="0 0 9 9" fill="none" xmlns="http://www.w3.org/2000/svg">
<path d="M2.38794 0.670454C2.12611 0.932283 2.12611 1.35679 2.38794 1.61862L4.52408 3.75476C4.9588 4.18948 4.9588 4.89431 4.52408 5.32903L2.47173 7.38138C2.2099 7.64321 2.2099 8.06772 2.47173 8.32955L2.94581 8.80363C3.20764 9.06546 3.63215 9.06546 3.89397 8.80363L7.68664 5.01097C7.94847 4.74914 7.94847 4.32463 7.68664 4.0628L7.21255 3.58872C7.20848 3.58465 7.20437 3.58064 7.20022 3.57669C7.16117 3.53956 7.11925 3.50544 7.08115 3.46734L3.81019 0.196372C3.54836 -0.0654571 3.12385 -0.0654572 2.86202 0.196371L2.38794 0.670454Z" fill="#00000E"/>
</svg>
