<svg width="9" height="9" viewBox="0 0 9 9" fill="none" xmlns="http://www.w3.org/2000/svg">
<path d="M7.68502 0.670454C7.94684 0.932283 7.94684 1.35679 7.68502 1.61862L5.54888 3.75476C5.11415 4.18948 5.11415 4.89431 5.54888 5.32903L7.60123 7.38138C7.86306 7.64321 7.86306 8.06772 7.60123 8.32955L7.12715 8.80363C6.86532 9.06546 6.44081 9.06546 6.17898 8.80363L2.38632 5.01097C2.12449 4.74914 2.12449 4.32463 2.38632 4.0628L2.8604 3.58872C2.86447 3.58465 2.86859 3.58064 2.87274 3.57669C2.91178 3.53956 2.9537 3.50544 2.9918 3.46734L6.26277 0.196372C6.5246 -0.0654571 6.9491 -0.0654572 7.21093 0.196371L7.68502 0.670454Z" fill="#00000E"/>
</svg>
