<svg width="36" height="36" viewBox="0 0 36 36" fill="none" xmlns="http://www.w3.org/2000/svg">
<path d="M10.1718 11.9541C10.6433 7.71048 14.2302 4.5 18.5 4.5C22.7698 4.5 26.3567 7.71048 26.8282 11.9541L27.2059 15.3535C27.3997 17.0973 27.9673 18.7788 28.87 20.2834L29.7371 21.7284C30.3283 22.7138 30.6239 23.2065 30.6588 23.6069C30.7214 24.3253 30.3348 25.008 29.6866 25.3239C29.3253 25.5 28.7508 25.5 27.6017 25.5H9.39835C8.24924 25.5 7.67469 25.5 7.31341 25.3239C6.66517 25.008 6.27863 24.3253 6.34123 23.6069C6.37612 23.2065 6.67172 22.7138 7.26293 21.7284L8.12998 20.2834C9.0327 18.7788 9.6003 17.0973 9.79406 15.3535L10.1718 11.9541Z" fill="white" stroke="#00000E" stroke-width="2.25"/>
<path d="M19.125 11.25H16.875" stroke="#00000E" stroke-width="2.25" stroke-linecap="round" stroke-linejoin="round"/>
<path d="M14.3896 17.1793C14.622 15.0848 16.3923 13.5 18.4997 13.5C20.6071 13.5 22.3774 15.0848 22.6098 17.1793L22.7845 18.7544C22.8845 19.6551 23.3741 20.4667 24.1243 20.975C24.4948 21.226 24.1944 21.8693 23.7605 21.7595C22.1297 21.3469 20.0531 20.9154 18.4997 20.9154C16.9463 20.9154 14.8698 21.3469 13.2391 21.7596C12.8052 21.8694 12.5048 21.2261 12.8753 20.975C13.6253 20.4667 14.1149 19.6551 14.2149 18.7545L14.3896 17.1793Z" fill="#00000E"/>
<path d="M16.7138 17.3239C16.8278 16.4244 17.5931 15.75 18.4999 15.75C19.4066 15.75 20.1719 16.4244 20.286 17.3239L20.3311 17.6796C20.3769 18.0412 20.5871 18.3614 20.9007 18.5473C21.0494 18.6355 20.9448 18.8896 20.776 18.8521C20.0739 18.6959 19.1725 18.5308 18.4999 18.5308C17.8273 18.5308 16.9258 18.6959 16.2238 18.8521C16.055 18.8897 15.9504 18.6356 16.0991 18.5474C16.4127 18.3614 16.6228 18.0412 16.6687 17.6796L16.7138 17.3239Z" fill="#BBFD3B"/>
<path d="M14.9549 29.9317C13.9379 28.9147 13.2068 27.4887 12.875 25.875L24.125 25.875C23.7932 27.4887 23.0621 28.9147 22.0451 29.9317C21.028 30.9487 19.7819 31.5 18.5 31.5C17.2181 31.5 15.9719 30.9487 14.9549 29.9317Z" fill="#BBFD3B" stroke="#00000E" stroke-width="2.25" stroke-linecap="round"/>
</svg>
