<svg width="32" height="32" viewBox="0 0 32 32" fill="none" xmlns="http://www.w3.org/2000/svg">
<path d="M13.2539 7.23047C13.8943 5.47996 16.3704 5.47997 17.0107 7.23047L18.1982 10.4766C18.5993 11.5729 19.4594 12.4394 20.5527 12.8486L23.8574 14.0859C25.5893 14.7342 25.5893 17.1838 23.8574 17.832L20.5527 19.0693C19.4596 19.4785 18.5994 20.3443 18.1982 21.4404L17.0107 24.6865C16.3704 26.437 13.8943 26.437 13.2539 24.6865L12.0664 21.4404C11.6653 20.3443 10.8051 19.4785 9.71191 19.0693L6.40723 17.832C4.67533 17.1838 4.67532 14.7342 6.40723 14.0859L9.71191 12.8486C10.8052 12.4394 11.6653 11.5729 12.0664 10.4766L13.2539 7.23047Z" fill="url(#paint0_linear_0_121)" stroke="#00000E" stroke-width="2"/>
<path d="M8.05957 18.4697C8.05957 18.4697 12.3523 19.771 15.1766 19.7543C17.9109 19.7381 22.0596 18.4697 22.0596 18.4697" stroke="#00000E" stroke-width="2" stroke-linecap="round" stroke-linejoin="round"/>
<path d="M13.2695 14.8765C13.2695 14.8765 14.5151 16.1778 15.3345 16.161C16.1279 16.1448 17.3317 14.8765 17.3317 14.8765" stroke="#00000E" stroke-width="2" stroke-linecap="round" stroke-linejoin="round"/>
<mask id="path-5-inside-1_0_121" fill="white">
<path d="M20.668 4.87085C20.732 4.6958 20.9796 4.6958 21.0436 4.87085L21.4634 6.01828C21.4834 6.0731 21.5264 6.11642 21.5811 6.13688L22.7219 6.56386C22.8951 6.62868 22.8951 6.87366 22.7219 6.93848L21.5811 7.36546C21.5264 7.38593 21.4834 7.42925 21.4634 7.48406L21.0436 8.63149C20.9796 8.80654 20.732 8.80654 20.668 8.63149L20.2482 7.48406C20.2282 7.42925 20.1852 7.38593 20.1305 7.36546L18.9897 6.93848C18.8165 6.87366 18.8165 6.62868 18.9897 6.56386L20.1305 6.13688C20.1852 6.11642 20.2282 6.0731 20.2482 6.01828L20.668 4.87085Z"/>
</mask>
<path d="M20.668 4.87085C20.732 4.6958 20.9796 4.6958 21.0436 4.87085L21.4634 6.01828C21.4834 6.0731 21.5264 6.11642 21.5811 6.13688L22.7219 6.56386C22.8951 6.62868 22.8951 6.87366 22.7219 6.93848L21.5811 7.36546C21.5264 7.38593 21.4834 7.42925 21.4634 7.48406L21.0436 8.63149C20.9796 8.80654 20.732 8.80654 20.668 8.63149L20.2482 7.48406C20.2282 7.42925 20.1852 7.38593 20.1305 7.36546L18.9897 6.93848C18.8165 6.87366 18.8165 6.62868 18.9897 6.56386L20.1305 6.13688C20.1852 6.11642 20.2282 6.0731 20.2482 6.01828L20.668 4.87085Z" fill="#DCDCDC"/>
<path d="M20.1305 6.13688L19.4294 4.26378L20.1305 6.13688ZM18.9897 6.93848L19.6908 5.06538L18.9897 6.93848ZM18.9897 6.56386L19.6908 8.43696L18.9897 6.56386ZM20.1305 7.36546L20.8316 5.49237L20.1305 7.36546ZM20.668 8.63149L18.7897 9.31861L20.668 8.63149ZM21.5811 7.36546L20.88 5.49237L21.5811 7.36546ZM21.4634 7.48406L23.3417 8.17118L21.4634 7.48406ZM22.7219 6.56386L22.0208 8.43696L22.7219 6.56386ZM22.7219 6.93848L22.0208 5.06538L22.7219 6.93848ZM21.4634 6.01828L23.3417 5.33116L21.4634 6.01828ZM21.5811 6.13688L22.2822 4.26378L21.5811 6.13688ZM20.668 4.87085L18.7897 4.18373L20.668 4.87085ZM21.0436 4.87085L19.1654 5.55797L19.5851 6.7054L21.4634 6.01828L23.3417 5.33116L22.9219 4.18373L21.0436 4.87085ZM21.5811 6.13688L20.88 8.00997L22.0208 8.43696L22.7219 6.56386L23.423 4.69076L22.2822 4.26378L21.5811 6.13688ZM22.7219 6.93848L22.0208 5.06538L20.88 5.49237L21.5811 7.36546L22.2822 9.23856L23.423 8.81158L22.7219 6.93848ZM21.4634 7.48406L19.5851 6.79694L19.1654 7.94437L21.0436 8.63149L22.9219 9.31861L23.3417 8.17118L21.4634 7.48406ZM20.668 8.63149L22.5462 7.94437L22.1265 6.79694L20.2482 7.48406L18.37 8.17118L18.7897 9.31861L20.668 8.63149ZM20.1305 7.36546L20.8316 5.49237L19.6908 5.06538L18.9897 6.93848L18.2886 8.81158L19.4294 9.23856L20.1305 7.36546ZM18.9897 6.56386L19.6908 8.43696L20.8316 8.00997L20.1305 6.13688L19.4294 4.26378L18.2886 4.69076L18.9897 6.56386ZM20.2482 6.01828L22.1265 6.7054L22.5462 5.55797L20.668 4.87085L18.7897 4.18373L18.37 5.33116L20.2482 6.01828ZM20.1305 6.13688L20.8316 8.00997C21.4329 7.78491 21.9059 7.30838 22.1265 6.7054L20.2482 6.01828L18.37 5.33116C18.5504 4.83781 18.9374 4.44792 19.4294 4.26378L20.1305 6.13688ZM18.9897 6.93848L19.6908 5.06538C21.2495 5.64879 21.2495 7.85355 19.6908 8.43696L18.9897 6.56386L18.2886 4.69076C16.3835 5.40381 16.3835 8.09853 18.2886 8.81158L18.9897 6.93848ZM20.2482 7.48406L22.1265 6.79694C21.9059 6.19396 21.4329 5.71743 20.8316 5.49237L20.1305 7.36546L19.4294 9.23856C18.9374 9.05442 18.5504 8.66453 18.37 8.17118L20.2482 7.48406ZM21.0436 8.63149L19.1654 7.94437C19.7417 6.36891 21.9699 6.36892 22.5462 7.94437L20.668 8.63149L18.7897 9.31861C19.4941 11.2442 22.2175 11.2442 22.9219 9.31861L21.0436 8.63149ZM21.5811 7.36546L20.88 5.49237C20.2787 5.71743 19.8057 6.19396 19.5851 6.79694L21.4634 7.48406L23.3417 8.17118C23.1612 8.66453 22.7742 9.05442 22.2822 9.23856L21.5811 7.36546ZM22.7219 6.56386L22.0208 8.43696C20.4621 7.85355 20.4621 5.64879 22.0208 5.06538L22.7219 6.93848L23.423 8.81158C25.3281 8.09853 25.3281 5.40381 23.423 4.69076L22.7219 6.56386ZM21.4634 6.01828L19.5851 6.7054C19.8057 7.30838 20.2787 7.78491 20.88 8.00997L21.5811 6.13688L22.2822 4.26378C22.7742 4.44792 23.1612 4.83781 23.3417 5.33116L21.4634 6.01828ZM21.0436 4.87085L22.9219 4.18373C22.2175 2.25818 19.4941 2.25816 18.7897 4.18373L20.668 4.87085L22.5462 5.55797C21.9699 7.13343 19.7417 7.13342 19.1654 5.55797L21.0436 4.87085Z" fill="#00000E" mask="url(#path-5-inside-1_0_121)"/>
<path d="M24.6914 8.47266C24.8218 8.82881 25.1018 9.11021 25.457 9.24316L25.6367 9.31055L25.457 9.37793C25.146 9.49435 24.8927 9.72495 24.7471 10.0195L24.6914 10.1494L24.6377 10.2959L24.584 10.1494L24.5273 10.0195C24.3817 9.72507 24.1293 9.49431 23.8184 9.37793L23.6377 9.31055L23.8184 9.24316C24.1736 9.11019 24.4536 8.82887 24.584 8.47266L24.6377 8.3252L24.6914 8.47266Z" fill="#DCDCDC" stroke="#00000E" stroke-width="2"/>
<defs>
<linearGradient id="paint0_linear_0_121" x1="15.1962" y1="24.7594" x2="15.1264" y2="17.844" gradientUnits="userSpaceOnUse">
<stop offset="0.673914" stop-color="#BBFD3B"/>
<stop offset="0.837667" stop-color="white"/>
</linearGradient>
</defs>
</svg>
