<svg width="20" height="20" viewBox="0 0 20 20" fill="none" xmlns="http://www.w3.org/2000/svg">
<path d="M1.875 14.375L1.875 5C1.875 4.30964 2.43464 3.75 3.125 3.75L16.25 3.75C16.9404 3.75 17.5 4.30964 17.5 5L17.5 14.375C17.5 15.0654 16.9404 15.625 16.25 15.625L3.125 15.625C2.43464 15.625 1.875 15.0654 1.875 14.375Z" fill="white" stroke="#00000E" stroke-width="1.25"/>
<path d="M4.45996 6.09863L4.88281 6.04785C5.42174 5.98267 6.09478 5.94434 6.76172 5.94434C7.42858 5.94434 8.04899 5.9797 8.5752 6.04004L8.99512 6.08789L9.08301 5.69238C9.09184 5.73295 9.10172 5.7751 9.11035 5.81934L9.16895 6.11719L9.4043 6.17188L9.18652 6.22949L9.22852 6.62988C9.2796 7.12113 9.31054 7.71927 9.31055 9.57324C9.31055 10.1852 9.28172 11.9822 9.23438 12.457L9.19434 12.8555L9.40527 12.9102L9.17773 12.9648L9.12207 13.2656C9.10962 13.333 9.09598 13.3964 9.08301 13.4561C9.08008 13.4426 9.07713 13.4289 9.07422 13.415L8.98633 12.9971L8.5625 13.0449C8.03916 13.1046 7.45176 13.1396 6.76172 13.1396C6.07187 13.1396 5.43244 13.1023 4.89551 13.0381L4.46875 12.9873L4.38086 13.4072C4.37735 13.4241 4.37268 13.4408 4.36914 13.457C4.35503 13.3923 4.34064 13.3228 4.32715 13.249L4.27344 12.9521L4.10449 12.9092L4.26074 12.8662L4.2207 12.4746C4.17232 11.9956 4.14258 10.2178 4.14258 9.57324C4.14258 7.68677 4.17508 7.10855 4.22754 6.61328L4.26855 6.21875L4.10645 6.17285L4.28223 6.12988L4.33887 5.83594C4.34859 5.78544 4.35915 5.73725 4.36914 5.69141L4.45996 6.09863Z" fill="#BBFD3B" stroke="#00000E" stroke-width="0.9375"/>
<path d="M15.9375 12.6562C15.9375 12.3974 15.7276 12.1875 15.4688 12.1875H11.7188C11.4599 12.1875 11.25 12.3974 11.25 12.6562C11.25 12.9151 11.4599 13.125 11.7188 13.125H15.4687C15.7276 13.125 15.9375 12.9151 15.9375 12.6562Z" fill="#00000E"/>
<path d="M15.9375 10.7812C15.9375 10.5224 15.7276 10.3125 15.4688 10.3125H12.6562C12.3974 10.3125 12.1875 10.5224 12.1875 10.7812C12.1875 11.0401 12.3974 11.25 12.6562 11.25H15.4688C15.7276 11.25 15.9375 11.0401 15.9375 10.7812Z" fill="#00000E"/>
<path d="M15.9375 8.90625C15.9375 8.64737 15.7276 8.4375 15.4687 8.4375H13.2812C13.0224 8.4375 12.8125 8.64737 12.8125 8.90625C12.8125 9.16513 13.0224 9.375 13.2812 9.375H15.4688C15.7276 9.375 15.9375 9.16513 15.9375 8.90625Z" fill="#00000E"/>
</svg>
