<svg width="28" height="28" viewBox="0 0 28 28" fill="none" xmlns="http://www.w3.org/2000/svg">
<path d="M11.6333 5.95259C12.2373 4.30171 14.5722 4.30172 15.1761 5.95259L16.2962 9.01322C16.6745 10.0471 17.4854 10.8645 18.5165 11.2504L21.6337 12.4171C23.2666 13.0286 23.2666 15.3385 21.6337 15.95L18.5165 17.1167C17.4854 17.5026 16.6745 18.3199 16.2962 19.3539L15.1761 22.4155C14.5721 24.0659 12.2375 24.0658 11.6333 22.4155L10.5133 19.3539C10.135 18.3199 9.32404 17.5026 8.29295 17.1167L5.17578 15.95C3.54254 15.3386 3.54252 13.0285 5.17578 12.4171L8.29295 11.2504C9.32404 10.8645 10.135 10.0471 10.5133 9.01322L11.6333 5.95259Z" fill="url(#paint0_linear_0_336)" stroke="#00000E" stroke-width="1.85664"/>
<path d="M6.73437 16.5522C6.73437 16.5522 10.7828 17.7794 13.4463 17.7636C16.025 17.7483 19.9376 16.5522 19.9376 16.5522" stroke="#00000E" stroke-width="1.85664" stroke-linecap="round" stroke-linejoin="round"/>
<path d="M11.6472 13.1632C11.6472 13.1632 12.8219 14.3904 13.5947 14.3746C14.3429 14.3593 15.4782 13.1632 15.4782 13.1632" stroke="#00000E" stroke-width="1.85664" stroke-linecap="round" stroke-linejoin="round"/>
<mask id="path-5-inside-1_0_336" fill="white">
<path d="M18.6248 3.72688C18.6851 3.56179 18.9186 3.56179 18.979 3.72688L19.3749 4.80901C19.3938 4.8607 19.4344 4.90156 19.4859 4.92085L20.5618 5.32354C20.7251 5.38467 20.7251 5.6157 20.5618 5.67684L19.4859 6.07952C19.4344 6.09882 19.3938 6.13967 19.3749 6.19137L18.979 7.27349C18.9186 7.43858 18.6851 7.43858 18.6248 7.27349L18.2289 6.19137C18.21 6.13967 18.1694 6.09882 18.1179 6.07952L17.042 5.67684C16.8787 5.6157 16.8787 5.38467 17.042 5.32354L18.1179 4.92085C18.1694 4.90156 18.21 4.8607 18.2289 4.80901L18.6248 3.72688Z"/>
</mask>
<path d="M18.6248 3.72688C18.6851 3.56179 18.9186 3.56179 18.979 3.72688L19.3749 4.80901C19.3938 4.8607 19.4344 4.90156 19.4859 4.92085L20.5618 5.32354C20.7251 5.38467 20.7251 5.6157 20.5618 5.67684L19.4859 6.07952C19.4344 6.09882 19.3938 6.13967 19.3749 6.19137L18.979 7.27349C18.9186 7.43858 18.6851 7.43858 18.6248 7.27349L18.2289 6.19137C18.21 6.13967 18.1694 6.09882 18.1179 6.07952L17.042 5.67684C16.8787 5.6157 16.8787 5.38467 17.042 5.32354L18.1179 4.92085C18.1694 4.90156 18.21 4.8607 18.2289 4.80901L18.6248 3.72688Z" fill="#DCDCDC"/>
<path d="M18.1179 4.92085L18.779 6.68735L18.1179 4.92085ZM18.2289 4.80901L16.4575 4.16099L18.2289 4.80901ZM17.042 5.67684L16.3808 7.44333L17.042 5.67684ZM18.2289 6.19137L16.4575 6.83938L18.2289 6.19137ZM18.1179 6.07952L18.779 4.31303L18.1179 6.07952ZM18.979 7.27349L20.7504 7.92151L18.979 7.27349ZM18.6248 7.27349L16.8534 7.92151L18.6248 7.27349ZM19.3749 4.80901L21.1463 4.16099L19.3749 4.80901ZM18.6248 3.72688L16.8534 3.07886L18.6248 3.72688ZM18.979 3.72688L17.2077 4.3749L17.6035 5.45702L19.3749 4.80901L21.1463 4.16099L20.7504 3.07887L18.979 3.72688ZM19.4859 4.92085L18.8247 6.68735L19.9006 7.09003L20.5618 5.32354L21.223 3.55704L20.1471 3.15436L19.4859 4.92085ZM20.5618 5.67684L19.9006 3.91034L18.8247 4.31303L19.4859 6.07952L20.1471 7.84601L21.223 7.44333L20.5618 5.67684ZM19.3749 6.19137L17.6035 5.54335L17.2077 6.62548L18.979 7.27349L20.7504 7.92151L21.1463 6.83938L19.3749 6.19137ZM18.6248 7.27349L20.3961 6.62548L20.0002 5.54335L18.2289 6.19137L16.4575 6.83938L16.8534 7.92151L18.6248 7.27349ZM18.1179 6.07952L18.779 4.31303L17.7032 3.91034L17.042 5.67684L16.3808 7.44333L17.4567 7.84601L18.1179 6.07952ZM17.042 5.32354L17.7032 7.09003L18.779 6.68735L18.1179 4.92085L17.4567 3.15436L16.3808 3.55704L17.042 5.32354ZM18.2289 4.80901L20.0002 5.45702L20.3961 4.3749L18.6248 3.72688L16.8534 3.07886L16.4575 4.16099L18.2289 4.80901ZM18.1179 4.92085L18.779 6.68735C19.3461 6.47509 19.7922 6.02568 20.0002 5.45702L18.2289 4.80901L16.4575 4.16099C16.6277 3.69572 16.9927 3.32803 17.4567 3.15436L18.1179 4.92085ZM17.042 5.67684L17.7032 3.91034C19.1732 4.46054 19.1732 6.53983 17.7032 7.09003L17.042 5.32354L16.3808 3.55704C14.5842 4.22951 14.5842 6.77086 16.3808 7.44333L17.042 5.67684ZM18.2289 6.19137L20.0002 5.54335C19.7922 4.97469 19.3461 4.52528 18.779 4.31303L18.1179 6.07952L17.4567 7.84601C16.9927 7.67235 16.6277 7.30465 16.4575 6.83938L18.2289 6.19137ZM18.979 7.27349L17.2077 6.62548C17.7512 5.13968 19.8526 5.1397 20.3961 6.62548L18.6248 7.27349L16.8534 7.92151C17.5177 9.73747 20.0861 9.73748 20.7504 7.92151L18.979 7.27349ZM19.4859 6.07952L18.8247 4.31303C18.2576 4.52528 17.8116 4.97469 17.6035 5.54335L19.3749 6.19137L21.1463 6.83938C20.9761 7.30465 20.6111 7.67235 20.1471 7.84601L19.4859 6.07952ZM20.5618 5.32354L19.9006 7.09003C18.4306 6.53983 18.4306 4.46054 19.9006 3.91034L20.5618 5.67684L21.223 7.44333C23.0196 6.77086 23.0196 4.22951 21.223 3.55704L20.5618 5.32354ZM19.3749 4.80901L17.6035 5.45702C17.8116 6.02569 18.2576 6.47509 18.8247 6.68735L19.4859 4.92085L20.1471 3.15436C20.6111 3.32803 20.9761 3.69572 21.1463 4.16099L19.3749 4.80901ZM18.979 3.72688L20.7504 3.07887C20.0861 1.26291 17.5177 1.26289 16.8534 3.07886L18.6248 3.72688L20.3961 4.3749C19.8526 5.86069 17.7512 5.86068 17.2077 4.3749L18.979 3.72688Z" fill="#00000E" mask="url(#path-5-inside-1_0_336)"/>
<path d="M22.4194 7.12327C22.5424 7.4593 22.8066 7.72505 23.1417 7.85048L23.3113 7.91397L23.1417 7.97747C22.8066 8.10289 22.5424 8.36865 22.4194 8.70467L22.3688 8.84258L22.3183 8.70467L22.2657 8.58265C22.1283 8.30479 21.8894 8.08727 21.596 7.97747L21.4254 7.91397L21.596 7.85048C21.9311 7.72505 22.1953 7.4593 22.3183 7.12327L22.3688 6.98437L22.4194 7.12327Z" fill="#DCDCDC" stroke="#00000E" stroke-width="1.85664"/>
<defs>
<linearGradient id="paint0_linear_0_336" x1="13.4648" y1="22.4834" x2="13.3989" y2="15.9615" gradientUnits="userSpaceOnUse">
<stop offset="0.673914" stop-color="#BBFD3B"/>
<stop offset="0.837667" stop-color="white"/>
</linearGradient>
</defs>
</svg>
