<svg width="75" height="36" viewBox="0 0 75 36" fill="none" xmlns="http://www.w3.org/2000/svg">
<path d="M12.0918 10.9556H13.4258L13.2559 13.9556H11.8984L10.875 31.3062L7.85742 29.3481L8.80957 13.9556H7.4082L7.58789 10.9556L9.02832 10.9761L9.34668 6.08838H12.3662L12.0918 10.9556ZM46.1094 25.6519C43.9358 26.6048 41.8477 27.6407 39.5371 28.6099L39.959 23.7681H42.1533C43.056 23.7681 43.0994 23.0974 43.166 22.4937L44.1279 6.28955H47.1748L46.1094 25.6519ZM20.2832 9.47705L25.0879 9.43799L24.7969 14.2446L27.3477 17.2114L25.708 20.0747L24.3574 18.4331C24.2514 20.1913 24.0736 23.3052 24.0527 23.3052C23.6779 25.0956 21.8212 25.8184 21.0488 25.8013H18.0811L17.665 22.6772C18.4219 22.6686 19.9285 22.6572 19.9551 22.6772C20.7255 22.8022 21.0054 21.8624 21.0488 21.3765L21.8291 12.4526H19.9551C19.01 21.8354 16.0448 24.6236 14.5303 26.0474L14.5156 26.062L12.251 23.8228C15.6846 21.3758 16.7149 15.27 16.8311 12.4526H13.959L14.168 9.46631L17.1162 9.43799L17.3662 6.08838H20.4756L20.2832 9.47705ZM58.2227 7.58643H62.1318C62.0947 8.12761 62.019 9.20506 62.0107 9.21045C63.1268 8.22456 64.3146 6.76601 64.3369 6.75635C64.7583 6.88713 67.0385 8.12179 67.0283 8.18213C66.7025 8.7174 64.6901 10.7464 63.7246 11.6938H67.1064L66.9277 14.3853H60.3066L58.416 15.688H65.1055L64.4834 26.0073L61.3018 25.9976L61.3486 25.2202H53.2686L53.2139 26.0073H50.0732C50.1875 23.8103 50.424 19.4272 50.4551 19.4458C49.7024 19.7509 48.6661 20.0475 48.2422 20.1577C48.0434 19.147 47.6542 17.1311 47.6826 17.1313C51.2225 16.3481 53.9348 14.9745 54.8486 14.3853H48.166L48.3184 11.6997H54.7617L54.8486 10.2036L49.8496 10.1909L50.001 7.62549L55 7.58936L55.0967 5.98193L58.3291 5.97607L58.2227 7.58643ZM36.1045 6.28955C35.9562 6.62466 35.6497 7.29786 35.6094 7.31299C36.1111 7.68266 38.4366 10.4597 39.5371 11.8022L37.9531 13.6021L37.6885 18.1401C37.6357 20.1337 35.8628 20.7533 34.9824 20.814H32.9355L32.6387 18.1401C33.0897 18.1511 34.0007 18.1665 34.041 18.1401C34.8201 18.2458 34.9934 17.6229 34.9824 17.2983L35.0811 15.7964H31.9453C31.819 17.8233 31.5662 21.8778 31.5654 21.9038C31.5919 22.643 32.182 22.7842 32.4736 22.7622C33.424 22.7677 35.3228 22.7753 35.3291 22.7622C36.1605 22.6698 36.0468 22.5046 36.2031 22.0356L36.583 20.4517L38.9766 21.1938C38.9576 21.2546 38.8188 21.824 38.418 23.6147C38.0171 25.4055 36.9029 25.454 35.7793 25.4956C35.1779 25.5179 33.447 25.5491 31.3359 25.4956C29.2254 25.4419 28.6081 24.0483 28.5635 23.3579L29.0527 15.0571L28.3633 15.5405L27.3477 12.4526C29.7423 11.0195 31.8658 7.61271 32.6279 6.08838L36.1045 6.28955ZM53.3457 22.8892H61.4766L61.5518 21.6499L53.418 21.5962L53.3457 22.8892ZM53.6338 18.2769L53.418 21.479L61.7178 18.9927L61.7617 18.27L53.6338 18.2769ZM41.8477 20.5679H39.0645L39.7734 8.75928H42.5566L41.8477 20.5679ZM16.0244 14.2446C15.798 15.9532 14.6822 18.6075 13.959 19.8931C13.3281 19.573 12.0684 18.9111 12.0605 18.8657C12.5935 18.0193 13.6531 14.939 13.959 13.646C14.6563 13.8456 16.0452 14.2446 16.0244 14.2446ZM34.042 9.85498C33.2497 10.8948 31.5855 12.9843 31.2686 13.0239H36.4512C35.7249 11.9675 34.3185 10.135 34.042 9.85498ZM58.0703 10.2036L57.9893 11.6997H59.1895L60.9619 10.2036H58.0703Z" fill="white"/>
<path d="M37.8506 29.2715C22.7075 35.8542 8.92086 37.6982 5.78613 33.2197C5.01383 32.1161 4.95352 30.7215 5.5127 29.127C5.45275 29.9218 5.62137 30.6352 6.04199 31.248C8.97134 35.5148 22.9873 33.378 38.0635 26.5596L37.8506 29.2715ZM44.9043 2.95605C55.9825 -0.544661 64.9924 -0.922328 67.4512 2.58984C68.2716 3.76214 68.2879 5.2625 67.6123 6.98242L64.6816 5.50195C64.8305 4.55849 64.6789 3.71951 64.1943 3.01367C62.1236 -0.00242734 54.5135 0.181639 44.9043 2.95605Z" fill="white"/>
<path d="M18.3053 28.0063C18.3621 28.0063 18.4081 28.0524 18.4081 28.1092V31.3796C18.4081 31.4364 18.3621 31.4824 18.3053 31.4824H17.8138C17.757 31.4824 17.7109 31.4364 17.7109 31.3796V28.1092C17.7109 28.0524 17.757 28.0063 17.8138 28.0063H18.3053Z" fill="white"/>
<path d="M16.3022 30.8894C16.2878 30.848 16.2488 30.8202 16.205 30.8202H14.967C14.9232 30.8202 14.8841 30.848 14.8698 30.8894L14.6886 31.4133C14.6743 31.4547 14.6353 31.4825 14.5914 31.4825H14.0788C14.0076 31.4825 13.958 31.4119 13.982 31.3449L15.1582 28.0696C15.1728 28.0287 15.2116 28.0015 15.255 28.0015H15.922C15.9654 28.0015 16.0041 28.0287 16.0188 28.0696L17.1949 31.3449C17.219 31.4119 17.1693 31.4825 17.0981 31.4825H16.5806C16.5367 31.4825 16.4977 31.4547 16.4833 31.4133L16.3022 30.8894ZM15.9446 30.2624C16.0153 30.2624 16.0649 30.1927 16.0418 30.1259L15.6832 29.0893C15.6513 28.9969 15.5207 28.9969 15.4888 29.0893L15.1302 30.1259C15.1071 30.1927 15.1567 30.2624 15.2274 30.2624H15.9446Z" fill="white"/>
<path d="M13.1618 31.5174C13.0356 31.5174 12.931 31.4792 12.848 31.4029C12.7684 31.3232 12.7285 31.2252 12.7285 31.109C12.7285 30.9928 12.7684 30.8966 12.848 30.8202C12.931 30.7405 13.0356 30.7007 13.1618 30.7007C13.2846 30.7007 13.3859 30.7405 13.4656 30.8202C13.5452 30.8966 13.5851 30.9928 13.5851 31.109C13.5851 31.2252 13.5452 31.3232 13.4656 31.4029C13.3859 31.4792 13.2846 31.5174 13.1618 31.5174Z" fill="white"/>
</svg>
