<svg width="150" height="36" viewBox="0 0 150 36" fill="none" xmlns="http://www.w3.org/2000/svg">
<path d="M132.143 0C142.005 0 150 8.05888 150 18C150 27.9411 142.005 36 132.143 36H60.7143C54.8233 36 49.5985 33.1246 46.346 28.6901C44.7128 26.5667 42.1576 25.2 39.2857 25.2C36.4139 25.2 33.8587 26.5667 32.2254 28.6901C28.9729 33.1245 23.7482 36 17.8571 36C7.99492 36 0 27.9411 0 18C0 8.05888 7.99492 0 17.8571 0C23.7482 0 28.973 2.87547 32.2255 7.30996C33.8587 9.43332 36.4139 10.8 39.2857 10.8C42.1576 10.8 44.7127 9.4333 46.346 7.30991C49.5985 2.87545 54.8233 0 60.7143 0H132.143Z" fill="#DCDCDC"/>
</svg>
